# generated from PmQm by Jehee Lee
:FULLY-SPECIFIED
:DEGREES
527
root -12.2251 38.7661 -25.8296 -177.826 31.5939 -175.565
RightUpLeg -2.80337 5.56932 9.56606
RightLeg 11.9413 4.99842 0.400563
RightFoot -9.64244 0.007373230005 -4.9001
RightToes -0.000541893 -0.000659172 -0.000493268
Spine 0.899141 1.35376 2.66814
Spine1 1.8471 2.67336 5.88981
HEad 21.1164 -11.3048 -7.46174
LeftShoulder1 -3.88251e-019 -0 -3.92111e-022
LeftArm -35.6723 7.2323 -84.0893
LeftForeArm 29.7923 1.09512 -0.221213
LeftHand -0.784646 -4.38505 9.59409
RightShoulder 7.45443e-017 -2.42657e-020 1.96277e-018
RightArm -18.5367 0.185799 68.0229
RightForeArm 17.6145 9.52856 10.2191
RightHand -1.72384 11.8367 -11.9591
LeftUpLeg -19.6538 2.72847 4.17062
LeftLeg 5.66427 -3.65946 0.314857
LeftFoot 6.08246 0.566844 -3.92738
LeftToes 3.91355e-005 3.11907e-005 -4.10385e-006
528
root -11.9677 38.6978 -26.788 -177.265 33.6667 -174.856
RightUpLeg -1.28925 5.4291 9.59296
RightLeg 12.045 6.92622 0.953043
RightFoot -11.1754 -0.0683338 -5.05229
RightToes -0.000541893 -0.000659172 -0.000493268
Spine 0.766969 1.3265 2.60627
Spine1 1.54843 2.66412 6.24319
HEad 21.1905 -10.3854 -7.54544
LeftShoulder1 -3.88251e-019 -0 -3.92111e-022
LeftArm -36.8146 7.6852 -85.3226
LeftForeArm 28.3249 2.24905 1.62504
LeftHand -0.792982 -5.10766 9.06443
RightShoulder 7.45443e-017 -2.42657e-020 1.96277e-018
RightArm -15.4905 1.79033 68.8483
RightForeArm 16.5177 10.6873 10.5017
RightHand -1.80475 12.0659 -12.3405
LeftUpLeg -18.9137 3.03394 4.51871
LeftLeg 1.21777 -6.28297 0.427877
LeftFoot 8.39457 1.02123 -6.15891
LeftToes 3.91355e-005 3.11907e-005 -4.10385e-006
529
root -11.6626 38.7429 -27.8092 -177.26 35.1016 -175.076
RightUpLeg 0.667482 5.14522 8.86772
RightLeg 11.4922 8.55404 1.02282
RightFoot -12.447 -0.131074 -4.86642
RightToes -0.000541893 -0.000659172 -0.000493268
Spine 0.630233 1.03376 2.40206
Spine1 1.24819 2.07387 5.81421
HEad 21.6039 -9.76159 -7.25377
LeftShoulder1 -3.88251e-019 -0 -3.92111e-022
LeftArm -38.1471 8.98473 -86.2342
LeftForeArm 24.9776 2.06186 3.31358
LeftHand -0.729639 -5.03746 8.41632
RightShoulder 7.45443e-017 -2.42657e-020 1.96277e-018
RightArm -12.4381 2.30367 69.7847
RightForeArm 15.3891 11.8453 10.6097
RightHand -1.83304 12.3561 -12.3318
LeftUpLeg -17.8748 2.60508 3.87952
LeftLeg 1.1216 -6.59716 0.707436
LeftFoot 10.5439 0.82139 -4.59796
LeftToes 3.91355e-005 3.11907e-005 -4.10385e-006
530
root -11.3016 38.8432 -28.8671 -178.297 35.9143 -176.84
RightUpLeg 2.86283 5.03515 7.09036
RightLeg 10.9047 9.45764 0.499646
RightFoot -13.9209 -0.195739 -4.51461
RightToes -0.000541893 -0.000659172 -0.000493268
Spine 0.498213 0.690588 1.70677
Spine1 0.957438 1.36537 4.37511
HEad 22.1763 -10.1608 -6.45655
LeftShoulder1 -3.88251e-019 -0 -3.92111e-022
LeftArm -39.1679 10.9097 -86.2207
LeftForeArm 21.1049 2.15694 4.27747
LeftHand -0.639513 -4.44745 7.82764
RightShoulder 7.45443e-017 -2.42657e-020 1.96277e-018
RightArm -10.487 1.26706 70.7485
RightForeArm 14.6597 12.972 10.3863
RightHand -1.80336 12.5103 -12.041
LeftUpLeg -16.1813 1.43222 2.04093
LeftLeg 1.78158 -4.97692 0.741506
LeftFoot 11.1901 0.203424 -1.36531
LeftToes 3.91355e-005 3.11907e-005 -4.10385e-006
531
root -10.9038 38.9232 -29.9176 179.95 36.9564 -179.678
RightUpLeg 4.54472 5.6311 4.52175
RightLeg 11.4406 9.61191 0.112278
RightFoot -15.5935 -0.263796 -4.26465
RightToes -0.000541893 -0.000659172 -0.000493268
Spine 0.358784 0.708946 0.615699
Spine1 0.656764 1.37702 2.30236
HEad 22.5484 -11.6031 -5.47669
LeftShoulder1 -3.88251e-019 -0 -3.92111e-022
LeftArm -39.1828 12.4368 -84.9154
LeftForeArm 19.4415 2.19776 4.12883
LeftHand -0.619641 -4.37148 7.64855
RightShoulder 7.45443e-017 -2.42657e-020 1.96277e-018
RightArm -10.2803 -1.44143 71.7816
RightForeArm 14.001 13.8359 9.95434
RightHand -1.77412 12.3949 -11.9273
LeftUpLeg -14.4223 0.175002 -0.182794
LeftLeg 2.33553 -2.47175 0.356212
LeftFoot 9.18537 0.0243481 -0.458136
LeftToes 3.91355e-005 3.11907e-005 -4.10385e-006
532
root -10.5318 38.9888 -30.8992 178.372 38.666 177.737
RightUpLeg 5.17937 7.91882 2.10726
RightLeg 13.3462 8.55606 0.577567
RightFoot -16.4512 -0.28354 -3.86296
RightToes -0.000541893 -0.000659172 -0.000493268
Spine 0.262275 1.06886 -0.478979
Spine1 0.434906 2.06455 0.401395
HEad 22.3819 -13.2732 -4.65995
LeftShoulder1 -3.88251e-019 -0 -3.92111e-022
LeftArm -38.47 13.246 -82.7631
LeftForeArm 20.0276 2.18201 3.08725
LeftHand -0.689012 -4.79977 8.13564
RightShoulder 7.45443e-017 -2.42657e-020 1.96277e-018
RightArm -13.0162 -4.53788 72.827
RightForeArm 15.5395 13.1266 9.99673
RightHand -1.73518 12.0221 -11.9159
LeftUpLeg -12.6988 -0.459586 -1.84275
LeftLeg 2.6056 -0.005059660002 -0.343062
LeftFoot 6.59615 0.204949 -1.55977
LeftToes 3.91355e-005 3.11907e-005 -4.10385e-006
533
root -10.2351 38.9885 -31.7854 177.577 40.5624 176.432
RightUpLeg 4.54075 10.6953 0.574563
RightLeg 16.9917 6.75536 1.80792
RightFoot -16.452 -0.232447 -2.73004
RightToes -0.000541893 -0.000659172 -0.000493268
Spine 0.254919 1.3715 -1.20296
Spine1 0.388596 2.61914 -0.712533
HEad 21.5394 -14.5318 -4.05884
LeftShoulder1 -3.88251e-019 -0 -3.92111e-022
LeftArm -37.8136 13.6639 -80.4819
LeftForeArm 21.2247 2.18689 1.78837
LeftHand -0.791354 -4.90135 9.2139
RightShoulder 7.45443e-017 -2.42657e-020 1.96277e-018
RightArm -18.8308 -6.65598 73.6491
RightForeArm 21.8404 10.0919 10.2443
RightHand -1.54053 11.3268 -11.0504
LeftUpLeg -11.7711 -0.646393 -2.74757
LeftLeg 3.97881 2.15333 -0.682112
LeftFoot 4.29494 0.212916 -1.73539
LeftToes 3.91355e-005 3.11907e-005 -4.10385e-006
